<?xml version="1.0" encoding="UTF-8"?><svg id="Calque_3" xmlns="http://www.w3.org/2000/svg" viewBox="0 0 262.25 215.75"><defs><style>.cls-1{fill:#fff;}.cls-2{fill:none;stroke:#edeef5;stroke-miterlimit:10;stroke-width:5px;}</style></defs><path class="cls-2" d="M108.87,48.66h-27.81c-2.38,0-4.31,1.93-4.31,4.31v97.88c0,2.38,1.93,4.31,4.31,4.31h73.25c2.38,0,4.32-1.93,4.32-4.31V52.97c0-2.38-1.94-4.31-4.32-4.31h-28.68"/><path class="cls-2" d="M76.75,149.78h-2.25c-4,0-7.25-3.24-7.25-7.24V61.28c0-4,3.25-7.24,7.25-7.24h2.25"/><path class="cls-2" d="M158.63,54.04h1.87c4,0,7.25,3.24,7.25,7.24v81.26c0,4-3.25,7.24-7.25,7.24h-1.87"/><path class="cls-2" d="M125.63,48.16v9.56h-16.76v-9.56c0-4.63,3.75-8.38,8.38-8.38s8.38,3.75,8.38,8.38Z"/><path class="cls-2" d="M116.11,103.1h-26.63c0-6.43,4.56-11.81,10.63-13.05-3.25-1.47-5.56-5.24-5.56-9.66,0-5.71,3.85-10.34,8.6-10.34s8.6,4.63,8.6,10.34c0,4.53-2.43,8.38-5.81,9.77,5.84,1.41,10.17,6.67,10.17,12.94Z"/><line class="cls-2" x1="129.61" y1="69.34" x2="151.03" y2="69.34"/><line class="cls-2" x1="129.61" y1="78.67" x2="151.03" y2="78.67"/><line class="cls-2" x1="129.61" y1="88" x2="146.62" y2="88"/><line class="cls-2" x1="129.61" y1="97.33" x2="146.62" y2="97.33"/><line class="cls-2" x1="88.03" y1="117.81" x2="103.12" y2="117.81"/><line class="cls-2" x1="88.03" y1="127.23" x2="103.12" y2="127.23"/><line class="cls-2" x1="88.03" y1="136.66" x2="103.12" y2="136.66"/><line class="cls-2" x1="108" y1="117.81" x2="128.06" y2="117.81"/><line class="cls-2" x1="108" y1="127.23" x2="128.06" y2="127.23"/><line class="cls-2" x1="108" y1="136.66" x2="128.06" y2="136.66"/><rect class="cls-1" x="134.62" y="115.75" width="15.75" height="22.69"/></svg>