<svg version="1.2" xmlns="http://www.w3.org/2000/svg" viewBox="0 0 653 477" width="653" height="477">
	<title>FondPageCodeConnu-svg</title>
	<style>
		.s0 { fill: #545751 } 
		.s1 { fill: #595648;stroke: #595648;stroke-linecap: round;stroke-width: 9 } 
		.s2 { fill: #595648;stroke: #bf1455;stroke-linecap: round;stroke-width: 9 } 
		.s3 { fill: #595648;stroke: #4ca5b8;stroke-linecap: round;stroke-width: 9 } 
		.s4 { fill: #595648;stroke: #8962c9;stroke-linecap: round;stroke-width: 9 } 
		.s5 { fill: #595648;stroke: #c4ba5d;stroke-linecap: round;stroke-width: 9 } 
		.s6 { fill: #595648;stroke: #679918;stroke-linecap: round;stroke-width: 9 } 
	</style>
	<g id="Layer_1">
	</g>
	<g id="Layer_2">
		<g id="Layer">
			<g id="Layer">
				<g id="Layer">
					<path id="Layer" class="s0" d="m14.1 16.7h10.2v14.5h-10.2z"/>
					<path id="Layer" class="s0" d="m14.1 37h10.2v14.5h-10.2z"/>
					<path id="Layer" class="s0" d="m14.1 57.2h10.2v14.6h-10.2z"/>
					<path id="Layer" class="s0" d="m14.1 77.5h10.2v14.6h-10.2z"/>
					<path id="Layer" class="s0" d="m14.1 97.8h10.2v14.6h-10.2z"/>
					<path id="Layer" class="s0" d="m14.1 118.1h10.2v14.6h-10.2z"/>
					<path id="Layer" class="s0" d="m14.1 138.4h10.2v14.5h-10.2z"/>
					<path id="Layer" class="s0" d="m14.1 158.9h10.2v14.6h-10.2z"/>
				</g>
				<g id="Layer">
					<g id="Layer">
						<path id="Layer" class="s1" d="m42.1 23.9h61.7"/>
						<path id="Layer" class="s1" d="m125.9 23.9h53.1"/>
					</g>
					<g id="Layer">
						<path id="Layer" class="s1" d="m42.1 145.7h86.1"/>
						<path id="Layer" class="s1" d="m144.3 145.7h200.7"/>
					</g>
					<g id="Layer">
						<path id="Layer" class="s1" d="m42.1 44.2h32.4"/>
						<path id="Layer" class="s1" d="m91.5 44.2h69.2"/>
						<path id="Layer" class="s1" d="m176.8 44.2h43"/>
					</g>
					<g id="Layer">
						<path id="Layer" class="s2" d="m42.1 87.8h61.7"/>
						<path id="Layer" class="s1" d="m119.7 87.8h41"/>
						<path id="Layer" class="s1" d="m176.8 87.8h68.2"/>
					</g>
					<g id="Layer">
						<path id="Layer" class="s2" d="m42.1 105.1h34.6"/>
						<path id="Layer" class="s1" d="m91.5 105.1h34.6"/>
						<path id="Layer" class="s1" d="m140.2 105.1h53.6"/>
					</g>
					<g id="Layer">
						<path id="Layer" class="s2" d="m42.1 125.4h79.8"/>
						<path id="Layer" class="s3" d="m140.2 125.4h161.2"/>
					</g>
				</g>
			</g>
			<g id="Layer">
				<g id="Layer">
					<path id="Layer" class="s0" d="m14.1 179.8h10.2v14.5h-10.2z"/>
					<path id="Layer" class="s0" d="m14.1 200.1h10.2v14.5h-10.2z"/>
					<path id="Layer" class="s0" d="m14.1 220.4h10.2v14.5h-10.2z"/>
					<path id="Layer" class="s0" d="m14.1 240.7h10.2v14.5h-10.2z"/>
					<path id="Layer" class="s0" d="m14.1 260.9h10.2v14.6h-10.2z"/>
					<path id="Layer" class="s0" d="m14.1 281.2h10.2v14.6h-10.2z"/>
					<path id="Layer" class="s0" d="m14.1 301.5h10.2v14.6h-10.2z"/>
				</g>
				<g id="Layer">
					<g id="Layer">
						<path id="Layer" class="s2" d="m42.1 187.1h86.1"/>
						<path id="Layer" class="s4" d="m144.3 187.1h53.1"/>
						<path id="Layer" class="s3" d="m212.7 187.1h86.3"/>
						<path id="Layer" class="s5" d="m314.3 187.1h11.9"/>
					</g>
					<g id="Layer">
						<path id="Layer" class="s1" d="m42.1 308.8h86.1"/>
						<path id="Layer" class="s1" d="m144.3 308.8h157.1"/>
					</g>
					<g id="Layer">
						<path id="Layer" class="s2" d="m42.1 207.4h32.4"/>
						<path id="Layer" class="s6" d="m91.5 207.4h69.2"/>
						<path id="Layer" class="s5" d="m176.8 207.4h43"/>
					</g>
					<g id="Layer">
						<path id="Layer" class="s2" d="m42.1 251h61.7"/>
						<path id="Layer" class="s5" d="m119.7 251h41"/>
						<path id="Layer" class="s1" d="m176.8 251h68.2"/>
					</g>
					<g id="Layer">
						<path id="Layer" class="s2" d="m42.1 268.2h34.6"/>
						<path id="Layer" class="s3" d="m91.5 268.2h34.6"/>
						<path id="Layer" class="s1" d="m140.2 268.2h53.6"/>
					</g>
					<g id="Layer">
						<path id="Layer" class="s2" d="m42.1 288.5h79.8"/>
						<path id="Layer" class="s3" d="m140.2 288.5h244.5"/>
						<path id="Layer" class="s5" d=""/>
						<path id="Layer" class="s5" d=""/>
					</g>
				</g>
			</g>
		</g>
		<g id="Layer">
			<g id="Layer">
				<g id="Layer">
					<path id="Layer" class="s0" d="m14.1 323.4h10.2v14.6h-10.2z"/>
					<path id="Layer" class="s0" d="m14.1 343.7h10.2v14.6h-10.2z"/>
					<path id="Layer" class="s0" d="m14.1 364h10.2v14.6h-10.2z"/>
					<path id="Layer" class="s0" d="m14.1 384.3h10.2v14.5h-10.2z"/>
					<path id="Layer" class="s0" d="m14.1 404.6h10.2v14.5h-10.2z"/>
					<path id="Layer" class="s0" d="m14.1 424.9h10.2v14.5h-10.2z"/>
					<path id="Layer" class="s0" d="m14.1 445.2h10.2v14.5h-10.2z"/>
				</g>
				<g id="Layer">
					<g id="Layer">
						<path id="Layer" class="s2" d="m42.1 330.7h86.1"/>
						<path id="Layer" class="s5" d="m144.3 330.7h207.9"/>
					</g>
					<g id="Layer">
						<path id="Layer" class="s1" d="m42.1 452.4h189"/>
						<path id="Layer" class="s1" d="m252 452.4h74.2"/>
					</g>
					<g id="Layer">
						<path id="Layer" class="s1" d="m42.1 351h32.4"/>
						<path id="Layer" class="s1" d="m91.5 351h69.2"/>
						<path id="Layer" class="s1" d="m176.8 351h43"/>
					</g>
					<g id="Layer">
						<path id="Layer" class="s2" d="m42.1 394.6h61.7"/>
						<path id="Layer" class="s1" d="m119.7 394.6h41"/>
						<path id="Layer" class="s1" d="m176.8 394.6h68.2"/>
					</g>
					<g id="Layer">
						<path id="Layer" class="s2" d="m42.1 411.9h34.6"/>
						<path id="Layer" class="s6" d="m91.5 411.9h34.6"/>
						<path id="Layer" class="s1" d="m140.2 411.9h53.6"/>
					</g>
					<g id="Layer">
						<path id="Layer" class="s2" d="m42.1 432.1h79.8"/>
						<path id="Layer" class="s3" d="m140.2 432.1h161.2"/>
					</g>
				</g>
			</g>
		</g>
	</g>
</svg>