<?xml version="1.0" encoding="UTF-8"?><svg id="Calque_4" xmlns="http://www.w3.org/2000/svg" viewBox="0 0 114.22 114.22"><defs><style>.cls-1{stroke-width:13px;}.cls-1,.cls-2,.cls-3,.cls-4{stroke:#edeef5;stroke-miterlimit:10;}.cls-1,.cls-2,.cls-4{fill:none;}.cls-2,.cls-3{stroke-width:16px;}.cls-5,.cls-3{fill:#edeef5;}.cls-4{stroke-width:5px;}</style></defs><rect class="cls-4" x="2.5" y="2.5" width="109.22" height="109.22" rx="6.09" ry="6.09"/><line class="cls-1" x1="27.5" y1="43.19" x2="27.5" y2="94.38"/><line class="cls-2" x1="54.43" y1="43.19" x2="54.43" y2="94.38"/><circle class="cls-3" cx="27.5" cy="27.84" r=".3"/><path class="cls-5" d="M56.73,57.71c-.18-.35-.31-.54-.39-.82-.05-.22,.05-.27,.18-.41,2.16-2.26,4.45-4.32,7-6.17,11.58-8.69,25-7.55,30.62,7.15l.36,.99v35.93h-13V59.61l.36,2.14c-.54-1.75-1.22-3.56-2.37-4.68-4.06-3.66-13.72,1.96-17.74,4.6l-.43,.29c-.08,.04-.11,.13-.23,.11l-.12-.04c-.56-.17-3.76-3.88-4.23-4.31h-.01Z"/></svg>